<svg xmlns="http://www.w3.org/2000/svg" data-v-0dd9719b="" version="1.0"
     style="&#10;    width: 246px;&#10;    height: 60px;&#10;">
    <g fill="#3c4352">
        <g>
            <g>
                <svg filter="url(#colors7475299310)" x="0" y="0" width="60" height="59.81815281544106"
                     class="image-svg-svg primary" style="overflow: visible;">
                    <svg xmlns="http://www.w3.org/2000/svg" x="0px" y="0px"
                         viewBox="2.0570144653320312 2.2030029296875 95.8849868774414 95.593994140625"
                         enable-background="new 0 0 100 100" xml:space="preserve"><path d="M97.942,75.222c-0.389-0.301-49.533-27.235-49.98-27.425l27.422,50c0.055-7.521,0.01-15.046,0.021-22.568  C82.917,75.219,90.431,75.229,97.942,75.222z"/>
                        <path d="M50.752,61.202c-1.783,0.636-3.694,1.001-5.693,1.001c-9.374,0-17-7.626-17-17s7.626-17,17-17s17,7.626,17,17  c0,1.844-0.305,3.615-0.85,5.278c1.68,0.918,3.473,1.899,5.335,2.918c0.975-2.548,1.515-5.31,1.515-8.196c0-12.682-10.317-23-23-23  s-23,10.318-23,23c0,12.682,10.317,23,23,23c3.044,0,5.95-0.6,8.612-1.679L50.752,61.202z"/>
                        <path d="M60.429,78.847c-4.685,2.148-9.888,3.356-15.37,3.356c-20.402,0-37.001-16.598-37.001-37c0-20.402,16.599-37,37.001-37  s37,16.598,37,37c0,5.322-1.139,10.382-3.171,14.959c1.797,0.985,3.567,1.957,5.273,2.895c2.495-5.442,3.897-11.485,3.897-17.854  c0-23.71-19.29-43-43-43c-23.711,0-43.001,19.29-43.001,43c0,23.71,19.29,43,43.001,43c6.527,0,12.716-1.469,18.263-4.082  L60.429,78.847z"/></svg>
                </svg>
            </g>
        </g>
        <g transform="translate(67,14.924074172973633)">
            <g>
                <g transform="scale(1)">
                    <g>
                        <path d="M11.29-20.94L11.29-20.94 11.4-20.94Q15.18-20.94 18.27-18.25L18.27-18.25Q19.32-17.2 19.54-16.86L19.54-16.86Q20.35-15.79 20.83-14.76L20.83-14.76Q21.91-12.3 21.91-9.63L21.91-9.63 21.91-9.46Q21.91-5.38 19.48-2.16L19.48-2.16Q19.11-1.66 18.42-0.99L18.42-0.99Q17.34 0 16.66 0.36L16.66 0.36Q14.18 1.86 11.4 1.86L11.4 1.86 11.29 1.86Q7.91 1.86 4.99-0.36L4.99-0.36Q3.77-1.38 3.15-2.25L3.15-2.25Q0.78-5.44 0.78-9.48L0.78-9.48 0.78-9.63Q0.78-13.63 3.1-16.8L3.1-16.8Q3.44-17.29 4.4-18.22L4.4-18.22Q5.52-19.18 6.23-19.57L6.23-19.57Q8.64-20.94 11.29-20.94ZM6.17-9.63L6.17-9.63 6.17-9.48Q6.17-6.95 7.49-5.15L7.49-5.15Q8.98-3.3 11.35-3.3L11.35-3.3Q13.71-3.3 15.18-5.13L15.18-5.13Q16.53-6.93 16.53-9.48L16.53-9.48 16.53-9.63Q16.53-12.13 15.25-13.9L15.25-13.9Q13.76-15.77 11.35-15.77L11.35-15.77Q9.03-15.77 7.55-14.02L7.55-14.02Q6.17-12.22 6.17-9.63ZM34.4-13.29L34.4-13.29 34.76-13.29Q37.16-13.29 38.49-11.93L38.49-11.93Q39.32-10.98 39.5-9.93L39.5-9.93Q39.72-9.2 39.72-7.79L39.72-7.79 39.72 1.86 34 1.86 34-7.06Q34-8.65 32.62-9.18L32.62-9.18Q32.09-9.35 31.59-9.35L31.59-9.35Q30.29-9.35 29.45-8.42L29.45-8.42Q29.03-7.88 29.03-7.1L29.03-7.1 29.03 1.86 23.31 1.86 23.31-13.06Q23.31-13.09 23.34-13.09L23.34-13.09 29.03-13.09 29.03-10.95Q29.7-11.71 30.13-12L30.13-12Q31.98-13.29 34.4-13.29ZM40.96 1.86L40.96-20.7 46.67-20.7 46.67 1.86 40.96 1.86ZM49.8-15.17L49.8-20.44 55.43-20.44 55.43-15.17Q55.43-15.15 55.4-15.15L55.4-15.15 49.83-15.15Q49.8-15.15 49.8-15.17L49.8-15.17ZM49.77 1.86L49.77-13.09 55.46-13.09 55.46 1.86 49.77 1.86ZM69.88-13.29L69.88-13.29 70.24-13.29Q72.65-13.29 73.98-11.93L73.98-11.93Q74.8-10.98 74.99-9.93L74.99-9.93Q75.2-9.2 75.2-7.79L75.2-7.79 75.2 1.86 69.48 1.86 69.48-7.06Q69.48-8.65 68.1-9.18L68.1-9.18Q67.57-9.35 67.08-9.35L67.08-9.35Q65.77-9.35 64.94-8.42L64.94-8.42Q64.52-7.88 64.52-7.1L64.52-7.1 64.52 1.86 58.8 1.86 58.8-13.06Q58.8-13.09 58.83-13.09L58.83-13.09 64.52-13.09 64.52-10.95Q65.19-11.71 65.62-12L65.62-12Q67.47-13.29 69.88-13.29ZM84.76-13.59L84.76-13.59Q88.01-13.59 90.23-12.07L90.23-12.07Q93.12-9.96 93.12-5.74L93.12-5.74 93.12-5.47Q93.12-5.35 93.1-5.12L93.1-5.12 82.42-5.12 82.42-5.02Q82.42-3.32 83.49-2.5L83.49-2.5Q84.12-2.05 84.98-2.05L84.98-2.05 84.99-2.05Q87.15-2.05 88.08-3.54L88.08-3.54Q88.4-3.49 92.75-2.76L92.75-2.76Q91.6-0.06 89.08 1.05L89.08 1.05Q87.22 1.86 84.82 1.86L84.82 1.86 84.63 1.86Q81.44 1.86 79.03-0.03L79.03-0.03Q76.44-2.26 76.44-5.83L76.44-5.83Q76.44-8.72 78.21-10.81L78.21-10.81Q78.97-11.62 79.31-11.83L79.31-11.83Q81.7-13.59 84.76-13.59ZM82.49-7.96L82.49-7.96 87.39-7.96Q87.39-8.89 86.06-9.51L86.06-9.51Q85.41-9.77 84.91-9.77L84.91-9.77Q83.94-9.77 82.99-9.01L82.99-9.01Q82.49-8.5 82.49-7.96ZM102.62-5.29L102.62-20.84 108.69-20.84 108.69-4.73Q108.69-1.41 106.52 0.43L106.52 0.43Q104.66 1.86 101.86 1.86L101.86 1.86 101.68 1.86Q99.13 1.86 97.24 0.87L97.24 0.87Q95.47-0.11 94.51-1.89L94.51-1.89 94.51-1.91Q94.56-1.95 96.41-3.13L96.41-3.13Q98.96-4.81 99.07-4.84L99.07-4.84Q99.72-3.66 100.48-3.43L100.48-3.43Q100.83-3.35 101.06-3.35L101.06-3.35Q102.62-3.35 102.62-5.29L102.62-5.29ZM110.08-5.99L110.08-13.42 116.04-13.42 116.04-6.03Q116.04-4.44 117.05-3.49L117.05-3.49Q117.62-3.02 118.24-3.02L118.24-3.02Q119.28-3.02 119.98-4.13L119.98-4.13Q120.44-4.87 120.44-6.36L120.44-6.36 120.44-13.42 126.42-13.42 126.42-6.06Q126.42-3.18 125.16-1.3L125.16-1.3Q124.96-0.92 124.18-0.16L124.18-0.16Q121.92 1.86 118.3 1.86L118.3 1.86 118.16 1.86Q114.36 1.86 112.12-0.33L112.12-0.33Q110.08-2.4 110.08-5.99L110.08-5.99ZM138.84-12.52L138.84-20.84 144.03-20.84 144.03 1.86 138.84 1.86 138.84 0.99 138.82 0.99Q137.16 1.86 135.33 1.86L135.33 1.86 135.21 1.86Q133.66 1.86 132.11 1.18L132.11 1.18Q131.5 0.9 130.79 0.4L130.79 0.4Q129.78-0.34 128.99-1.44L128.99-1.44Q127.66-3.44 127.66-5.77L127.66-5.77Q127.66-8.5 129.5-10.73L129.5-10.73Q131.94-13.38 135.3-13.38L135.3-13.38Q137.1-13.38 138.82-12.52L138.82-12.52 138.84-12.52ZM132.2-5.74L132.2-5.74Q132.2-4.36 133.36-3.37L133.36-3.37Q134.23-2.68 135.21-2.68L135.21-2.68 135.33-2.68Q136.67-2.68 137.68-3.8L137.68-3.8Q138.36-4.7 138.36-5.66L138.36-5.66 138.36-5.88Q138.36-7.03 137.4-8.02L137.4-8.02Q136.47-8.84 135.29-8.84L135.29-8.84Q133.95-8.84 132.98-7.82L132.98-7.82Q132.65-7.38 132.65-7.35L132.65-7.35Q132.2-6.61 132.2-5.74ZM156.27-12.53L156.27-13.38 161.47-13.38 161.47 0.02Q161.47 4.23 158.92 6.62L158.92 6.62Q157.71 7.75 156.02 8.37L156.02 8.37Q154.15 9.03 152.07 9.03L152.07 9.03 151.91 9.03Q149.31 9.03 146.52 8.03L146.52 8.03 146.52 3.82Q148.81 4.45 150.66 4.45L150.66 4.45 151.01 4.45Q153.51 4.45 155 3.21L155 3.21Q155.81 2.5 156.13 1.24L156.13 1.24 156.12 1.24Q154.6 1.95 152.87 1.95L152.87 1.95Q150.94 1.95 149.12 0.95L149.12 0.95Q148.61 0.68 147.74-0.06L147.74-0.06Q146.89-0.9 146.61-1.4L146.61-1.4Q145.27-3.37 145.27-5.69L145.27-5.69Q145.27-8.73 147.51-11.07L147.51-11.07Q147.52-11.07 147.97-11.51L147.97-11.51Q148-11.51 148.31-11.77L148.31-11.77Q150.44-13.32 152.89-13.32L152.89-13.32Q154.63-13.32 156.27-12.53L156.27-12.53ZM149.82-5.66L149.82-5.66Q149.82-4.22 151.08-3.19L151.08-3.19Q151.94-2.61 152.91-2.61L152.91-2.61Q154.39-2.61 155.4-3.88L155.4-3.88Q155.98-4.73 155.98-5.55L155.98-5.55 155.98-5.78Q155.98-6.99 154.98-7.97L154.98-7.97Q154.05-8.76 152.89-8.76L152.89-8.76Q151.73-8.76 150.77-7.91L150.77-7.91Q149.82-6.95 149.82-5.66ZM171.02-13.59L171.02-13.59Q174.28-13.59 176.49-12.07L176.49-12.07Q179.38-9.96 179.38-5.74L179.38-5.74 179.38-5.47Q179.38-5.35 179.36-5.12L179.36-5.12 168.68-5.12 168.68-5.02Q168.68-3.32 169.75-2.5L169.75-2.5Q170.38-2.05 171.24-2.05L171.24-2.05 171.25-2.05Q173.41-2.05 174.34-3.54L174.34-3.54Q174.66-3.49 179.01-2.76L179.01-2.76Q177.86-0.06 175.35 1.05L175.35 1.05Q173.49 1.86 171.08 1.86L171.08 1.86 170.9 1.86Q167.7 1.86 165.3-0.03L165.3-0.03Q162.71-2.26 162.71-5.83L162.71-5.83Q162.71-8.72 164.48-10.81L164.48-10.81Q165.24-11.62 165.58-11.83L165.58-11.83Q167.96-13.59 171.02-13.59ZM168.76-7.96L168.76-7.96 173.66-7.96Q173.66-8.89 172.32-9.51L172.32-9.51Q171.67-9.77 171.18-9.77L171.18-9.77Q170.2-9.77 169.25-9.01L169.25-9.01Q168.76-8.5 168.76-7.96Z"
                              transform="translate(-0.7799999713897705, 20.940000534057617)"/>
                    </g>
                </g>
            </g>
        </g>
    </g>
</svg>